<svg version="1.1" viewBox="0.0 0.0 960.0 720.0" fill="none" stroke="none" stroke-linecap="square" stroke-miterlimit="10" xmlns:xlink="http://www.w3.org/1999/xlink" xmlns="http://www.w3.org/2000/svg"><clipPath id="p.0"><path d="m0 0l960.0 0l0 720.0l-960.0 0l0 -720.0z" clip-rule="nonzero"/></clipPath><g clip-path="url(#p.0)"><path fill="#000000" fill-opacity="0.0" d="m0 0l960.0 0l0 720.0l-960.0 0z" fill-rule="evenodd"/><path fill="#edf7ff" fill-opacity="0.6822" d="m52.800526 154.83353l66.69292 0l66.69292 66.69292l0 109.59053l0 0l-66.69292 0l-66.69292 -66.6929l0 -109.590546z" fill-rule="evenodd"/><path fill="#f1ffec" fill-opacity="0.4118" d="m319.55664 331.1231l66.69293 0l66.6929 66.6929l0 109.590576l0 0l-66.6929 0l-66.69293 -66.69293l0 -109.590546z" fill-rule="evenodd"/><path fill="#efeafa" fill-opacity="0.5196" d="m186.17859 507.4127l66.69292 0l66.69292 66.6929l0 109.590576l0 0l-66.69292 0l-66.69292 -66.69293l0 -109.590546z" fill-rule="evenodd"/><path fill="#efeafa" fill-opacity="0.5196" d="m452.9426 -21.447777l66.6929 0l66.69293 66.69292l0 109.59056l0 0l-66.69293 0l-66.6929 -66.69292l0 -109.59055z" fill-rule="evenodd"/><path fill="#edf7ff" fill-opacity="0.6822" d="m586.32806 154.83353l66.69293 0l66.69293 66.69292l0 109.59053l0 0l-66.69293 0l-66.69293 -66.6929l0 -109.590546z" fill-rule="evenodd"/><path fill="#f1ffec" fill-opacity="0.4118" d="m853.1 331.1231l66.69287 0l66.69293 66.6929l0 109.590576l0 0l-66.69293 0l-66.69287 -66.69293l0 -109.590546z" fill-rule="evenodd"/><path fill="#efeafa" fill-opacity="0.5196" d="m719.71405 507.4127l66.69287 0l66.69293 66.6929l0 109.590576l0 0l-66.69293 0l-66.69287 -66.69293l0 -109.590546z" fill-rule="evenodd"/><path fill="#edf7ff" fill-opacity="0.6822" d="m452.94226 683.6944l66.69293 0l66.69287 66.69293l0 109.590576l0 0l-66.69287 0l-66.69293 -66.69293l0 -109.590576z" fill-rule="evenodd"/><path fill="#f1ffec" fill-opacity="0.4118" d="m186.1787 -21.44907l66.69292 0l66.6929 66.69292l0 109.59055l0 0l-66.6929 0l-66.69292 -66.69292l0 -109.590546z" fill-rule="evenodd"/><path fill="#efeafa" fill-opacity="0.5196" d="m986.48566 154.83527l66.69293 0l66.69287 66.69292l0 109.59056l0 0l-66.69287 0l-66.69293 -66.69293l0 -109.590546z" fill-rule="evenodd"/><path fill="#edf7ff" fill-opacity="0.6822" d="m52.800526 1036.2719l66.69292 0l66.69292 66.69287l0 109.590576l0 0l-66.69292 0l-66.69292 -66.69287l0 -109.590576z" fill-rule="evenodd"/><path fill="#f1ffec" fill-opacity="0.4118" d="m319.55664 1212.5614l66.69293 0l66.6929 66.69299l0 109.590454l0 0l-66.6929 0l-66.69293 -66.69287l0 -109.590576z" fill-rule="evenodd"/><path fill="#efeafa" fill-opacity="0.5196" d="m186.17859 1388.8511l66.69292 0l66.69292 66.69287l0 109.590576l0 0l-66.69292 0l-66.69292 -66.69299l0 -109.590454z" fill-rule="evenodd"/><path fill="#efeafa" fill-opacity="0.5196" d="m452.9426 859.99054l66.6929 0l66.69293 66.69293l0 109.590576l0 0l-66.69293 0l-66.6929 -66.69293l0 -109.590576z" fill-rule="evenodd"/><path fill="#edf7ff" fill-opacity="0.6822" d="m586.32806 1036.2719l66.69293 0l66.69293 66.69287l0 109.590576l0 0l-66.69293 0l-66.69293 -66.69287l0 -109.590576z" fill-rule="evenodd"/><path fill="#f1ffec" fill-opacity="0.4118" d="m853.1 1212.5614l66.69287 0l66.69293 66.69299l0 109.590454l0 0l-66.69293 0l-66.69287 -66.69287l0 -109.590576z" fill-rule="evenodd"/><path fill="#efeafa" fill-opacity="0.5196" d="m719.71405 1388.8511l66.69287 0l66.69293 66.69287l0 109.590576l0 0l-66.69293 0l-66.69287 -66.69299l0 -109.590454z" fill-rule="evenodd"/><path fill="#edf7ff" fill-opacity="0.6822" d="m452.94226 1565.1327l66.69293 0l66.69287 66.69299l0 109.590576l0 0l-66.69287 0l-66.69293 -66.69299l0 -109.590576z" fill-rule="evenodd"/><path fill="#f1ffec" fill-opacity="0.4118" d="m186.1787 859.98926l66.69292 0l66.6929 66.69293l0 109.590515l0 0l-66.6929 0l-66.69292 -66.69293l0 -109.590515z" fill-rule="evenodd"/><path fill="#efeafa" fill-opacity="0.5196" d="m986.48566 1036.2736l66.69293 0l66.69287 66.69299l0 109.590454l0 0l-66.69287 0l-66.69293 -66.69287l0 -109.590576z" fill-rule="evenodd"/></g></svg>